<svg width="408" height="208" viewBox="0 0 408 208" fill="none" xmlns="http://www.w3.org/2000/svg">
<rect x="2" y="2" width="404" height="204" rx="22" fill="black" stroke="white" stroke-width="4"/>
<path fill-rule="evenodd" clip-rule="evenodd" d="M192.17 31.2863C191.164 31.9833 191.058 32.4559 191.056 36.2853C191.054 38.6113 191.313 44.4299 191.631 49.2157L192.209 57.9167H207.626H223.043L223.349 56.5686C223.517 55.8275 223.797 51.8897 223.971 47.8186C224.224 41.9176 224.118 39.473 223.444 35.7618L222.6 31.1069L214.854 30.7877C201.398 30.2338 193.438 30.4088 192.17 31.2863ZM46.292 32.3025C40.0001 32.4328 39.0085 32.5623 38.6925 33.2971C38.0199 34.8632 37.8243 113.694 38.4673 124.338C38.7932 129.73 39.172 143.121 39.3097 154.094L39.5606 174.046L42.3468 174.674C43.8791 175.019 47.0218 175.249 49.3305 175.185C53.2618 175.076 64.9142 173.823 66.6613 173.321C68.0184 172.931 68.7038 158.933 68.2944 139.954L67.9448 123.721L75.0574 123.375C81.967 123.038 82.4376 122.944 91.5527 120.052C96.7132 118.416 101.195 116.835 101.512 116.541C101.83 116.246 103.566 113.488 105.37 110.411L108.65 104.817L109.106 96.4407C109.358 91.8333 109.807 83.7623 110.105 78.5049C110.404 73.2476 110.653 68.0637 110.661 66.9853C110.673 65.3858 108.34 47.7226 107.357 41.9652C106.983 39.776 101.174 35.1588 98.1952 34.6833C81.8772 32.077 80.169 31.9338 66.7102 32.0446C59.4599 32.1044 50.2717 32.2206 46.292 32.3025ZM137.232 33.301C128.405 33.7005 121.089 34.1093 120.975 34.2093C120.861 34.3088 120.516 37.423 120.209 41.1294C119.762 46.5206 119.898 60.6716 120.889 111.911L122.127 175.955L126.285 176.299C128.571 176.488 142.065 176.243 156.27 175.754L182.097 174.867L182.367 172.151C182.514 170.658 182.759 167.12 182.911 164.289C183.062 161.458 183.313 157.874 183.467 156.324L183.748 153.505L177.157 153.503C171.914 153.501 168.96 153.201 162.725 152.032C158.412 151.225 154.801 150.564 154.7 150.564C154.599 150.564 154.516 123.983 154.516 91.4951C154.516 44.5275 154.389 32.4417 153.898 32.5005C153.559 32.5407 146.059 32.901 137.232 33.301ZM323.159 33.0265C319.901 33.2789 317.136 33.5833 317.015 33.7029C316.756 33.9608 314.286 51.1637 310.125 81.6912C307.717 99.3603 306.53 110.627 304.162 138.309C302.535 157.316 301.135 173.568 301.05 174.423L300.896 175.978L310.051 175.699C315.087 175.545 319.324 175.243 319.466 175.028C319.609 174.813 320.795 164.864 322.101 152.919C323.409 140.974 324.548 131.13 324.634 131.044C324.8 130.877 342.82 131.973 343.041 132.163C343.112 132.225 343.517 141.519 343.941 152.817C344.366 164.114 344.818 173.879 344.946 174.516L345.179 175.674L353.181 175.326C367.505 174.703 374.233 174.292 374.505 174.022C374.652 173.876 374.337 158.336 373.806 139.489C372.943 108.916 372.562 101.441 370.265 70.1716C368.849 50.8946 367.53 34.9387 367.333 34.7137C366.819 34.126 342.034 32.4333 335.01 32.5064C331.75 32.5402 326.418 32.774 323.159 33.0265ZM250.024 33.5554L233.187 34.0206L232.565 46.2441C232.223 52.9672 232.022 58.5422 232.118 58.6328C232.214 58.724 236.405 59.1735 241.429 59.6324C246.454 60.0912 250.631 60.5279 250.712 60.6039C250.934 60.8113 249.89 113.931 249.074 143.946C248.679 158.505 248.352 171.575 248.349 172.99L248.343 175.564H265.454H282.566L282.247 157.549C282.071 147.641 281.781 121.809 281.602 100.146L281.277 60.7574L285.674 61.0681C288.092 61.2392 291.548 61.5025 293.354 61.6534L296.636 61.9275L296.919 60.0446C297.365 57.0819 298.902 34.4108 298.673 34.1868C298.401 33.9221 273.054 32.8917 269.567 33.0034C268.079 33.0515 259.285 33.2995 250.024 33.5554ZM56.171 63.1863C54.4776 67.3927 54.4055 83.4147 56.0337 93.5784L56.289 95.1716H69.009H81.7295L83.3191 93.5431C84.733 92.0956 84.9621 91.4564 85.3878 87.7833C86.0999 81.6348 85.9833 78.4941 84.8579 73.4779C83.9473 69.4201 83.5981 68.674 81.4811 66.2672L79.1196 63.5829L74.4722 62.7353C71.648 62.2201 67.2525 61.8779 63.2688 61.8628L56.7132 61.8382L56.171 63.1863ZM326.176 66.825C325.916 69.7363 324.367 107.508 324.384 110.536C324.392 111.91 324.426 111.926 326.738 111.656C328.028 111.504 332.49 111.238 336.653 111.062L344.222 110.743L343.888 97.1976L343.553 83.652L341.591 76.0539C340.512 71.875 339.42 67.649 339.164 66.6627C338.648 64.6676 338.798 64.7123 330.238 64.0265L326.454 63.7235L326.176 66.825ZM192.333 69.3088C192.154 69.9181 191.871 91.1123 191.704 116.407C191.464 152.733 191.536 163.569 192.048 167.973C192.403 171.038 192.826 173.755 192.988 174.009C193.287 174.48 221.868 175.04 222.329 174.583C222.465 174.449 222.874 167.081 223.237 158.211C223.863 142.945 223.837 140.814 222.74 118.26C221.626 95.3579 221.61 93.9525 222.337 81.9363C222.753 75.0613 222.941 69.299 222.755 69.1309C222.569 68.9632 215.721 68.6853 207.537 68.5137L192.658 68.2015L192.333 69.3088Z" fill="white"/>
</svg>
