<svg width="401" height="200" viewBox="0 0 401 200" fill="none" xmlns="http://www.w3.org/2000/svg">
<rect x="0.5" width="400" height="200" rx="20" fill="black"/>
<path fill-rule="evenodd" clip-rule="evenodd" d="M188.67 27.2863C187.664 27.9833 187.558 28.4559 187.556 32.2853C187.554 34.6113 187.813 40.4299 188.131 45.2157L188.709 53.9167H204.126H219.543L219.849 52.5686C220.017 51.8275 220.297 47.8897 220.471 43.8186C220.724 37.9176 220.618 35.473 219.944 31.7618L219.1 27.1069L211.354 26.7877C197.898 26.2338 189.938 26.4088 188.67 27.2863ZM42.792 28.3025C36.5001 28.4328 35.5085 28.5623 35.1925 29.2971C34.5199 30.8632 34.3243 109.694 34.9673 120.338C35.2932 125.73 35.672 139.121 35.8097 150.094L36.0606 170.046L38.8468 170.674C40.3791 171.019 43.5218 171.249 45.8305 171.185C49.7618 171.076 61.4142 169.823 63.1613 169.321C64.5184 168.931 65.2038 154.933 64.7944 135.954L64.4448 119.721L71.5574 119.375C78.467 119.038 78.9376 118.944 88.0527 116.052C93.2132 114.416 97.6952 112.835 98.0122 112.541C98.3297 112.246 100.066 109.488 101.87 106.411L105.15 100.817L105.606 92.4407C105.858 87.8333 106.307 79.7623 106.605 74.5049C106.904 69.2476 107.153 64.0637 107.161 62.9853C107.173 61.3858 104.84 43.7226 103.857 37.9652C103.483 35.776 97.6744 31.1588 94.6952 30.6833C78.3772 28.077 76.669 27.9338 63.2102 28.0446C55.9599 28.1044 46.7717 28.2206 42.792 28.3025ZM133.732 29.301C124.905 29.7005 117.589 30.1093 117.475 30.2093C117.361 30.3088 117.016 33.423 116.709 37.1294C116.262 42.5206 116.398 56.6716 117.389 107.911L118.627 171.955L122.785 172.299C125.071 172.488 138.565 172.243 152.77 171.754L178.597 170.867L178.867 168.151C179.014 166.658 179.259 163.12 179.411 160.289C179.562 157.458 179.813 153.874 179.967 152.324L180.248 149.505L173.657 149.503C168.414 149.501 165.46 149.201 159.225 148.032C154.912 147.225 151.301 146.564 151.2 146.564C151.099 146.564 151.016 119.983 151.016 87.4951C151.016 40.5275 150.889 28.4417 150.398 28.5005C150.059 28.5407 142.559 28.901 133.732 29.301ZM319.659 29.0265C316.401 29.2789 313.636 29.5833 313.515 29.7029C313.256 29.9608 310.786 47.1637 306.625 77.6912C304.217 95.3603 303.03 106.627 300.662 134.309C299.035 153.316 297.635 169.568 297.55 170.423L297.396 171.978L306.551 171.699C311.587 171.545 315.824 171.243 315.966 171.028C316.109 170.813 317.295 160.864 318.601 148.919C319.909 136.974 321.048 127.13 321.134 127.044C321.3 126.877 339.32 127.973 339.541 128.163C339.612 128.225 340.017 137.519 340.441 148.817C340.866 160.114 341.318 169.879 341.446 170.516L341.679 171.674L349.681 171.326C364.005 170.703 370.733 170.292 371.005 170.022C371.152 169.876 370.837 154.336 370.306 135.489C369.443 104.916 369.062 97.4407 366.765 66.1716C365.349 46.8946 364.03 30.9387 363.833 30.7137C363.319 30.126 338.534 28.4333 331.51 28.5064C328.25 28.5402 322.918 28.774 319.659 29.0265ZM246.524 29.5554L229.687 30.0206L229.065 42.2441C228.723 48.9672 228.522 54.5422 228.618 54.6328C228.714 54.724 232.905 55.1735 237.929 55.6324C242.954 56.0912 247.131 56.5279 247.212 56.6039C247.434 56.8113 246.39 109.931 245.574 139.946C245.179 154.505 244.852 167.575 244.849 168.99L244.843 171.564H261.954H279.066L278.747 153.549C278.571 143.641 278.281 117.809 278.102 96.1456L277.777 56.7574L282.174 57.0681C284.592 57.2392 288.048 57.5025 289.854 57.6534L293.136 57.9275L293.419 56.0446C293.865 53.0819 295.402 30.4108 295.173 30.1868C294.901 29.9221 269.554 28.8917 266.067 29.0034C264.579 29.0515 255.785 29.2995 246.524 29.5554ZM52.671 59.1863C50.9776 63.3927 50.9055 79.4147 52.5337 89.5784L52.789 91.1716H65.509H78.2295L79.8191 89.5431C81.233 88.0956 81.4621 87.4564 81.8878 83.7833C82.5999 77.6348 82.4833 74.4941 81.3579 69.4779C80.4473 65.4201 80.0981 64.674 77.9811 62.2672L75.6196 59.5829L70.9722 58.7353C68.148 58.2201 63.7525 57.8779 59.7688 57.8628L53.2132 57.8382L52.671 59.1863ZM322.676 62.825C322.416 65.7363 320.867 103.508 320.884 106.536C320.892 107.91 320.926 107.926 323.238 107.656C324.528 107.504 328.99 107.238 333.153 107.062L340.722 106.743L340.388 93.1976L340.053 79.652L338.091 72.0539C337.012 67.875 335.92 63.649 335.664 62.6627C335.148 60.6676 335.298 60.7123 326.738 60.0265L322.954 59.7235L322.676 62.825ZM188.833 65.3088C188.654 65.9181 188.371 87.1123 188.204 112.407C187.964 148.733 188.036 159.569 188.548 163.973C188.903 167.038 189.326 169.755 189.488 170.009C189.787 170.48 218.368 171.04 218.829 170.583C218.965 170.449 219.374 163.081 219.737 154.211C220.363 138.945 220.337 136.814 219.24 114.26C218.126 91.3579 218.11 89.9525 218.837 77.9363C219.253 71.0613 219.441 65.299 219.255 65.1309C219.069 64.9632 212.221 64.6853 204.037 64.5137L189.158 64.2015L188.833 65.3088Z" fill="white"/>
</svg>
